<svg 
 xmlns="http://www.w3.org/2000/svg"
 xmlns:xlink="http://www.w3.org/1999/xlink"
 width="1584px" height="389px">
<path fill-rule="evenodd"  stroke="rgb(0, 0, 0)" stroke-width="0px" stroke-linecap="butt" stroke-linejoin="miter" fill="rgb(88, 204, 307)"
 d="M 327.999 209.999 C 295.336 209.999 262.663 209.999 229.999 209.999 C 229.999 192.247 229.999 174.489 229.999 156.736 C 212.668 156.736 195.331 156.736 177.999 156.736 C 177.999 124.245 177.999 91.744 177.999 59.253 C 195.331 59.253 212.668 59.253 229.999 59.253 C 229.999 42.17 229.999 25.82 229.999 7.999 C 262.663 7.999 295.336 7.999 327.999 7.999 C 327.999 25.82 327.999 42.17 327.999 59.253 C 345.331 59.253 362.668 59.253 379.999 59.253 C 379.999 91.744 379.999 124.245 379.999 156.736 C 362.668 156.736 345.331 156.736 327.999 156.736 C 327.999 174.489 327.999 192.247 327.999 209.999 Z"/>
  
<path fill-rule="evenodd"  stroke="rgb(0, 0, 0)" stroke-width="0px" stroke-linecap="butt" stroke-linejoin="miter" fill="rgb(18, 97, 160)"
 d="M 229.36 221.767 C 262.343 221.767 295.661 221.767 328.968 221.767 C 331.301 362.679 161.3 441.267 54.154 346.589 C -52.824 252.59 6.271 57.601 165.79 58.999 C 165.79 91.284 165.79 123.577 165.79 155.861 C 98.721 157.58 81.634 240.172 127.104 276.689 C 173.18 313.691 230.183 265.88 229.36 221.767 Z"/>
  
<path fill-rule="evenodd"  stroke="rgb(0, 0, 0)" stroke-width="0px" stroke-linecap="butt" stroke-linejoin="miter" fill="rgb(7, 47, 95)"
 d="M 945.359 173.99 L 907.718 123.781 L 907.718 173.99 L 869.73 173.99 L 869.73 8.854 L 907.718 8.854 L 907.718 104.435 L 943.737 57.681 L 990.18 57.681 L 945.127 114.108 L 994.2 173.99 L 945.359 173.99 Z M 828.151 45.14 C 821.973 45.14 816.627 42.75 812.11 38.219 C 807.593 33.69 805.335 28.393 805.335 22.328 C 805.335 16.339 807.612 11.12 812.168 6.666 C 816.723 2.215 822.51 0.12 828.151 0.12 C 834.25 0.12 839.539 2.215 844.18 6.666 C 848.495 11.12 850.736 16.339 850.736 22.328 C 850.736 28.471 848.495 33.786 844.18 38.277 C 839.539 42.768 834.25 45.14 828.151 45.14 Z M 749.974 115.29 C 749.974 108.44 748.275 102.689 744.878 98.965 C 741.48 95.242 736.771 93.38 730.748 93.38 C 727.42 93.38 723.412 94.378 719.861 96.374 C 716.309 98.371 713.452 100.98 711.291 104.205 L 711.291 173.99 L 673.303 173.99 L 673.303 57.681 L 711.291 57.681 L 711.291 70.463 C 714.456 65.782 718.663 62.97 723.915 59.408 C 729.165 56.722 734.762 55.378 740.709 55.378 C 755.533 55.378 767.133 60.99 775.512 69.542 C 783.889 78.985 788.78 92.37 788.78 108.696 L 788.78 173.99 L 749.974 173.99 L 749.974 115.29 Z M 633.809 45.14 C 627.631 45.14 622.285 42.75 617.768 38.219 C 613.251 33.69 610.993 28.393 610.993 22.328 C 610.993 16.339 613.269 11.12 617.826 6.666 C 622.381 2.215 627.709 0.12 633.809 0.12 C 639.908 0.12 645.197 2.215 649.676 6.666 C 654.153 11.12 656.393 16.339 656.393 22.328 C 656.393 28.471 654.153 33.786 649.676 38.277 C 645.197 42.768 639.908 45.14 633.809 45.14 Z M 614.583 57.681 L 652.571 57.681 L 652.571 173.99 L 614.583 173.99 L 614.583 57.681 Z M 555.864 8.854 L 593.852 8.854 L 593.852 173.99 L 555.864 173.99 L 555.864 8.854 Z M 495.638 173.99 L 457.998 123.781 L 457.998 173.99 L 420.9 173.99 L 420.9 8.854 L 457.998 8.854 L 457.998 104.435 L 494.17 57.681 L 540.46 57.681 L 495.407 114.108 L 544.282 173.99 L 495.638 173.99 Z M 808.925 57.681 L 846.913 57.681 L 846.913 173.99 L 808.925 173.99 L 808.925 57.681 Z"/>

<path fill-rule="evenodd"  stroke="rgb(0, 0, 0)" stroke-width="0px" stroke-linecap="butt" stroke-linejoin="miter" fill="rgb(18, 97, 160)"
 d="M 1536.94 384.61 L 1536.94 368.95 C 1533.58 373.661 1528.161 378.202 1520.677 381.718 C 1513.193 385.233 1505.37 386.991 1496.21 386.991 C 1484.121 386.991 1473.14 383.548 1462.892 376.664 C 1452.769 369.78 1444.781 360.455 1438.93 348.687 C 1433.76 336.92 1430.15 324.104 1430.15 310.236 C 1430.15 296.273 1433.76 283.383 1438.93 271.566 C 1444.781 259.752 1452.769 250.4 1462.892 243.515 C 1473.14 236.631 1484.121 233.189 1496.21 233.189 C 1504.94 233.189 1513.71 234.946 1520.605 238.462 C 1528.136 241.977 1533.58 246.518 1536.94 252.84 L 1536.94 236.118 L 1584.2 236.118 L 1584.2 384.61 L 1536.94 384.61 Z M 1536.94 295.295 C 1533.965 290.512 1529.838 286.605 1524.563 283.577 C 1519.285 280.551 1513.384 279.36 1506.86 279.36 C 1498.225 279.36 1491.4 281.991 1485.2 287.898 C 1479.394 293.808 1476.493 301.253 1476.493 310.236 C 1476.493 319.123 1479.419 326.546 1485.272 332.501 C 1491.123 338.458 1498.319 341.436 1506.86 341.436 C 1513.193 341.436 1519.44 339.923 1524.419 336.895 C 1529.791 333.869 1533.965 330.11 1536.94 325.323 L 1536.94 295.295 Z M 1434.9 384.61 L 1374.453 384.61 L 1327.679 320.197 L 1327.679 384.61 L 1280.473 384.61 L 1280.473 174.11 L 1327.679 174.11 L 1327.679 295.588 L 1372.438 236.118 L 1430.15 236.118 L 1374.165 307.892 L 1434.9 384.61 Z M 1159.723 322.54 C 1163.847 338.36 1174.547 346.27 1191.818 346.27 C 1197.381 346.27 1202.755 345.5 1207.937 342.608 C 1213.118 340.168 1216.666 337.188 1218.587 333.673 L 1255.718 356.816 C 1250.537 366.388 1242.212 373.808 1230.748 379.81 C 1219.282 384.354 1205.922 386.991 1190.666 386.991 C 1169.269 386.991 1151.135 379.52 1136.264 364.58 C 1121.391 349.639 1113.956 331.329 1113.956 309.65 C 1113.956 288.7 1121.247 269.932 1135.832 255.234 C 1150.415 240.538 1168.406 233.189 1189.803 233.189 C 1209.47 233.189 1226.118 240.25 1239.743 253.696 C 1253.366 267.368 1260.18 284.115 1260.18 303.938 C 1260.18 309.701 1259.604 315.901 1258.453 322.54 L 1159.723 322.54 Z M 1203.907 277.791 C 1199.14 274.33 1193.401 272.152 1187.68 272.152 C 1172.579 272.152 1163.465 278.842 1159.723 292.219 L 1212.686 292.219 C 1211.726 286.36 1208.8 281.552 1203.907 277.791 Z M 1047.177 368.95 C 1043.817 373.661 1038.398 378.202 1030.914 381.718 C 1023.43 385.233 1015.274 386.991 1006.447 386.991 C 994.358 386.991 983.251 383.548 973.13 376.664 C 963.6 369.78 955.18 360.455 949.167 348.687 C 943.313 336.92 940.388 324.104 940.388 310.236 C 940.388 296.273 943.313 283.383 949.167 271.566 C 955.18 259.752 963.6 250.4 973.13 243.515 C 983.251 236.631 994.358 233.189 1006.447 233.189 C 1015.177 233.189 1023.309 234.946 1030.842 238.462 C 1038.373 241.977 1043.817 246.518 1047.177 252.84 L 1047.177 174.11 L 1094.239 174.11 L 1094.239 384.61 L 1047.177 384.61 L 1047.177 368.95 Z M 1047.177 295.295 C 1044.202 290.512 1040.75 286.605 1034.8 283.577 C 1029.522 280.551 1023.621 279.36 1017.97 279.36 C 1008.462 279.36 1001.241 281.991 995.437 287.898 C 989.631 293.808 986.73 301.253 986.73 310.236 C 986.73 319.123 989.656 326.546 995.509 332.501 C 1001.361 338.458 1008.557 341.436 1017.97 341.436 C 1023.43 341.436 1029.281 339.923 1034.656 336.895 C 1040.28 333.869 1044.202 330.11 1047.177 325.323 L 1047.177 295.295 Z M 817.47 322.54 L 718.318 322.54 C 722.442 338.36 733.142 346.27 750.412 346.27 C 755.975 346.27 761.35 345.5 766.531 342.608 C 771.712 340.168 775.261 337.188 777.181 333.673 L 814.313 356.816 C 809.132 366.388 800.807 373.808 789.343 379.81 C 777.876 384.354 764.516 386.991 749.261 386.991 C 727.864 386.991 709.73 379.52 694.859 364.58 C 679.985 349.639 672.551 331.329 672.551 309.65 C 672.551 288.7 679.841 269.932 694.427 255.234 C 709.1 240.538 727 233.189 748.397 233.189 C 768.65 233.189 784.712 240.25 798.338 253.696 C 811.961 267.368 818.774 284.115 818.774 303.938 C 818.774 309.701 818.199 315.901 817.47 322.54 Z M 762.501 277.791 C 757.608 274.33 751.995 272.152 745.663 272.152 C 731.174 272.152 722.6 278.842 718.318 292.219 L 771.281 292.219 C 770.32 286.36 767.395 281.552 762.501 277.791 Z M 651.97 291.633 L 651.97 384.61 L 604.188 384.61 L 604.188 301.594 C 604.188 294.27 602.34 288.484 598.647 284.236 C 594.953 279.988 589.94 277.864 583.608 277.864 C 579.481 277.864 575.38 279.87 571.302 281.526 C 567.223 283.968 564.129 287.45 562.2 290.755 L 562.2 384.61 L 514.67 384.61 L 514.67 301.594 C 514.67 294.467 512.749 288.729 508.913 284.383 C 505.74 280.39 500.278 277.864 494.521 277.864 C 489.531 277.864 485.69 279.16 481.136 281.746 C 477.201 284.335 474.228 287.729 472.213 291.926 L 472.213 384.61 L 425.7 384.61 L 425.7 236.118 L 472.213 236.118 L 472.213 251.791 C 476.243 246.518 481.64 242.101 488.404 238.535 C 495.168 234.972 503.12 233.189 511.935 233.189 C 529.3 233.189 541.965 239.487 549.93 252.84 C 554.727 246.811 560.891 242.343 568.424 238.682 C 575.955 235.2 583.943 233.189 592.387 233.189 C 609.657 233.189 623.906 238.585 635.131 249.374 C 646.357 260.166 651.97 274.253 651.97 291.633 Z M 886.273 252.963 C 889.44 247.202 894.333 242.467 900.953 238.755 C 907.574 235.45 913.953 233.189 920.95 233.189 C 927.97 233.189 933.95 234.166 938.85 236.118 L 935.494 281.233 C 929.353 278.988 922.876 277.864 916.65 277.864 C 910.978 277.864 905.462 279.746 899.514 283.504 C 893.564 287.264 889.152 292.464 886.273 299.104 L 886.273 384.61 L 839.67 384.61 L 839.67 236.118 L 886.273 236.118 L 886.273 252.963 Z"/>
</svg>
